<?xml version="1.0" standalone="no"?><!DOCTYPE svg PUBLIC "-//W3C//DTD SVG 1.1//EN" "http://www.w3.org/Graphics/SVG/1.1/DTD/svg11.dtd"><svg t="1612931800321" class="icon" viewBox="0 0 1024 1024" version="1.1" xmlns="http://www.w3.org/2000/svg" p-id="3614" xmlns:xlink="http://www.w3.org/1999/xlink" width="200" height="200"><defs><style type="text/css"></style></defs><path d="M794.453333 350.72l-213.333333-170.666667a42.666667 42.666667 0 0 0-52.906667 0l-213.333333 170.666667a42.666667 42.666667 0 0 0 52.906667 66.56L512 302.08V682.666667a42.666667 42.666667 0 0 1-42.666667 42.666666H256a42.666667 42.666667 0 0 0 0 85.333334h213.333333a128 128 0 0 0 128-128V302.08l144.213334 115.2A42.666667 42.666667 0 0 0 768 426.666667a42.666667 42.666667 0 0 0 33.28-16.213334 42.666667 42.666667 0 0 0-6.826667-59.733333z" p-id="3615" fill="#e6e6e6"></path></svg>