<?xml version="1.0" standalone="no"?><!DOCTYPE svg PUBLIC "-//W3C//DTD SVG 1.1//EN" "http://www.w3.org/Graphics/SVG/1.1/DTD/svg11.dtd"><svg t="1612931772529" class="icon" viewBox="0 0 1024 1024" version="1.1" xmlns="http://www.w3.org/2000/svg" p-id="5261" xmlns:xlink="http://www.w3.org/1999/xlink" width="200" height="200"><defs><style type="text/css"></style></defs><path d="M768 725.333333h-213.333333a42.666667 42.666667 0 0 1-42.666667-42.666666V302.08l144.213333 115.2A42.666667 42.666667 0 0 0 682.666667 426.666667a42.666667 42.666667 0 0 0 33.28-16.213334 42.666667 42.666667 0 0 0-6.826667-59.733333l-213.333333-170.666667a42.666667 42.666667 0 0 0-52.906667 0l-213.333333 170.666667a42.666667 42.666667 0 0 0 52.906666 66.56L426.666667 302.08V682.666667a128 128 0 0 0 128 128h213.333333a42.666667 42.666667 0 0 0 0-85.333334z" p-id="5262" fill="#e6e6e6"></path></svg>